<mxfile host="app.diagrams.net" modified="2022-03-18T23:39:35.618Z" agent="5.0 (Windows NT 10.0; Win64; x64) AppleWebKit/537.36 (KHTML, like Gecko) Chrome/89.0.4389.90 Safari/537.36 Edg/89.0.774.57" etag="ebtLXxTacLA_Mq5F_JUA" version="17.1.3" type="github">
  <diagram id="NPQNEvUZd93E6L1WkFEV" name="Page-1">
    <mxGraphModel dx="870" dy="547" grid="1" gridSize="10" guides="1" tooltips="1" connect="1" arrows="1" fold="1" page="1" pageScale="1" pageWidth="827" pageHeight="1169" math="1" shadow="0">
      <root>
        <mxCell id="0" />
        <mxCell id="1" parent="0" />
        <mxCell id="hfaoqGvCwaQ-2JbTVN7c-45" style="edgeStyle=none;rounded=0;orthogonalLoop=1;jettySize=auto;html=1;exitX=0.5;exitY=0;exitDx=0;exitDy=0;fontSize=15;startArrow=none;startFill=0;endArrow=open;endFill=0;strokeWidth=2;" edge="1" parent="1" source="hfaoqGvCwaQ-2JbTVN7c-1">
          <mxGeometry relative="1" as="geometry">
            <mxPoint x="340" y="30" as="targetPoint" />
          </mxGeometry>
        </mxCell>
        <mxCell id="hfaoqGvCwaQ-2JbTVN7c-46" style="edgeStyle=none;rounded=0;orthogonalLoop=1;jettySize=auto;html=1;exitX=0.5;exitY=0;exitDx=0;exitDy=0;fontSize=15;startArrow=none;startFill=0;endArrow=open;endFill=0;strokeWidth=2;" edge="1" parent="1" source="hfaoqGvCwaQ-2JbTVN7c-1">
          <mxGeometry relative="1" as="geometry">
            <mxPoint x="380" y="30" as="targetPoint" />
          </mxGeometry>
        </mxCell>
        <mxCell id="hfaoqGvCwaQ-2JbTVN7c-47" style="edgeStyle=none;rounded=0;orthogonalLoop=1;jettySize=auto;html=1;exitX=0.5;exitY=0;exitDx=0;exitDy=0;fontSize=15;startArrow=none;startFill=0;endArrow=open;endFill=0;strokeWidth=2;" edge="1" parent="1" source="hfaoqGvCwaQ-2JbTVN7c-1">
          <mxGeometry relative="1" as="geometry">
            <mxPoint x="420" y="30" as="targetPoint" />
          </mxGeometry>
        </mxCell>
        <mxCell id="hfaoqGvCwaQ-2JbTVN7c-1" value="" style="rounded=1;whiteSpace=wrap;html=1;fillColor=none;strokeWidth=2;" vertex="1" parent="1">
          <mxGeometry x="160" y="80" width="440" height="520" as="geometry" />
        </mxCell>
        <mxCell id="hfaoqGvCwaQ-2JbTVN7c-17" style="edgeStyle=orthogonalEdgeStyle;curved=1;rounded=0;orthogonalLoop=1;jettySize=auto;html=1;exitX=1;exitY=0;exitDx=0;exitDy=0;entryX=0.5;entryY=0;entryDx=0;entryDy=0;strokeWidth=2;fontStyle=1;fontSize=15;" edge="1" parent="1" source="hfaoqGvCwaQ-2JbTVN7c-2" target="hfaoqGvCwaQ-2JbTVN7c-12">
          <mxGeometry relative="1" as="geometry">
            <Array as="points">
              <mxPoint x="422" y="240" />
              <mxPoint x="500" y="240" />
            </Array>
          </mxGeometry>
        </mxCell>
        <mxCell id="hfaoqGvCwaQ-2JbTVN7c-20" style="edgeStyle=orthogonalEdgeStyle;curved=1;rounded=0;orthogonalLoop=1;jettySize=auto;html=1;exitX=0.5;exitY=0;exitDx=0;exitDy=0;entryX=0.5;entryY=1;entryDx=0;entryDy=0;strokeWidth=2;fontStyle=1;fontSize=15;" edge="1" parent="1" source="hfaoqGvCwaQ-2JbTVN7c-2" target="hfaoqGvCwaQ-2JbTVN7c-7">
          <mxGeometry relative="1" as="geometry" />
        </mxCell>
        <mxCell id="hfaoqGvCwaQ-2JbTVN7c-2" value="Cell" style="ellipse;whiteSpace=wrap;html=1;aspect=fixed;fillColor=none;strokeWidth=4;fontStyle=1;fontSize=15;" vertex="1" parent="1">
          <mxGeometry x="320" y="280" width="120" height="120" as="geometry" />
        </mxCell>
        <mxCell id="hfaoqGvCwaQ-2JbTVN7c-9" style="edgeStyle=orthogonalEdgeStyle;rounded=0;orthogonalLoop=1;jettySize=auto;html=1;exitX=0.5;exitY=0;exitDx=0;exitDy=0;entryX=0.5;entryY=1;entryDx=0;entryDy=0;strokeWidth=2;fontStyle=1;fontSize=15;" edge="1" parent="1" source="hfaoqGvCwaQ-2JbTVN7c-3" target="hfaoqGvCwaQ-2JbTVN7c-8">
          <mxGeometry relative="1" as="geometry" />
        </mxCell>
        <mxCell id="hfaoqGvCwaQ-2JbTVN7c-33" style="edgeStyle=none;rounded=0;orthogonalLoop=1;jettySize=auto;html=1;exitX=0.5;exitY=1;exitDx=0;exitDy=0;startArrow=open;startFill=0;endArrow=none;endFill=0;strokeWidth=2;fontStyle=1;fontSize=15;" edge="1" parent="1" source="hfaoqGvCwaQ-2JbTVN7c-3">
          <mxGeometry relative="1" as="geometry">
            <mxPoint x="380" y="640" as="targetPoint" />
          </mxGeometry>
        </mxCell>
        <mxCell id="hfaoqGvCwaQ-2JbTVN7c-34" style="edgeStyle=none;rounded=0;orthogonalLoop=1;jettySize=auto;html=1;exitX=0;exitY=1;exitDx=0;exitDy=0;startArrow=open;startFill=0;endArrow=none;endFill=0;strokeWidth=2;fontStyle=1;fontSize=15;" edge="1" parent="1" source="hfaoqGvCwaQ-2JbTVN7c-3">
          <mxGeometry relative="1" as="geometry">
            <mxPoint x="340" y="630" as="targetPoint" />
          </mxGeometry>
        </mxCell>
        <mxCell id="hfaoqGvCwaQ-2JbTVN7c-35" style="edgeStyle=none;rounded=0;orthogonalLoop=1;jettySize=auto;html=1;exitX=1;exitY=1;exitDx=0;exitDy=0;startArrow=open;startFill=0;endArrow=none;endFill=0;strokeWidth=2;fontStyle=1;fontSize=15;" edge="1" parent="1" source="hfaoqGvCwaQ-2JbTVN7c-3">
          <mxGeometry relative="1" as="geometry">
            <mxPoint x="420" y="630" as="targetPoint" />
          </mxGeometry>
        </mxCell>
        <mxCell id="hfaoqGvCwaQ-2JbTVN7c-3" value="tanh" style="ellipse;whiteSpace=wrap;html=1;aspect=fixed;fillColor=none;strokeWidth=2;fontStyle=1;fontSize=15;" vertex="1" parent="1">
          <mxGeometry x="360" y="560" width="40" height="40" as="geometry" />
        </mxCell>
        <mxCell id="hfaoqGvCwaQ-2JbTVN7c-19" style="edgeStyle=orthogonalEdgeStyle;curved=1;rounded=0;orthogonalLoop=1;jettySize=auto;html=1;exitX=0;exitY=0.5;exitDx=0;exitDy=0;entryX=1;entryY=0.5;entryDx=0;entryDy=0;strokeWidth=2;fontStyle=1;fontSize=15;" edge="1" parent="1" source="hfaoqGvCwaQ-2JbTVN7c-4" target="hfaoqGvCwaQ-2JbTVN7c-12">
          <mxGeometry relative="1" as="geometry" />
        </mxCell>
        <mxCell id="hfaoqGvCwaQ-2JbTVN7c-36" style="edgeStyle=none;rounded=0;orthogonalLoop=1;jettySize=auto;html=1;exitX=1;exitY=0;exitDx=0;exitDy=0;startArrow=open;startFill=0;endArrow=none;endFill=0;strokeWidth=2;fontStyle=1;fontSize=15;" edge="1" parent="1" source="hfaoqGvCwaQ-2JbTVN7c-4">
          <mxGeometry relative="1" as="geometry">
            <mxPoint x="630" y="310" as="targetPoint" />
          </mxGeometry>
        </mxCell>
        <mxCell id="hfaoqGvCwaQ-2JbTVN7c-37" style="edgeStyle=none;rounded=0;orthogonalLoop=1;jettySize=auto;html=1;exitX=1;exitY=0.5;exitDx=0;exitDy=0;startArrow=open;startFill=0;endArrow=none;endFill=0;strokeWidth=2;fontStyle=1;fontSize=15;" edge="1" parent="1" source="hfaoqGvCwaQ-2JbTVN7c-4">
          <mxGeometry relative="1" as="geometry">
            <mxPoint x="630" y="340" as="targetPoint" />
          </mxGeometry>
        </mxCell>
        <mxCell id="hfaoqGvCwaQ-2JbTVN7c-38" style="edgeStyle=none;rounded=0;orthogonalLoop=1;jettySize=auto;html=1;exitX=1;exitY=1;exitDx=0;exitDy=0;startArrow=open;startFill=0;endArrow=none;endFill=0;strokeWidth=2;fontStyle=1;fontSize=15;" edge="1" parent="1" source="hfaoqGvCwaQ-2JbTVN7c-4">
          <mxGeometry relative="1" as="geometry">
            <mxPoint x="630" y="370" as="targetPoint" />
          </mxGeometry>
        </mxCell>
        <mxCell id="hfaoqGvCwaQ-2JbTVN7c-4" value="&#xa;&#xa;&lt;span style=&quot;color: rgb(0, 0, 0); font-family: helvetica; font-size: 15px; font-style: normal; letter-spacing: normal; text-align: center; text-indent: 0px; text-transform: none; word-spacing: 0px; background-color: rgb(248, 249, 250); display: inline; float: none;&quot;&gt;$$\sigma$$&lt;/span&gt;&#xa;&#xa;" style="ellipse;whiteSpace=wrap;html=1;aspect=fixed;fillColor=none;strokeWidth=2;fontStyle=1;fontSize=15;" vertex="1" parent="1">
          <mxGeometry x="560" y="320" width="40" height="40" as="geometry" />
        </mxCell>
        <mxCell id="hfaoqGvCwaQ-2JbTVN7c-11" style="edgeStyle=orthogonalEdgeStyle;rounded=0;orthogonalLoop=1;jettySize=auto;html=1;exitX=1;exitY=0.5;exitDx=0;exitDy=0;entryX=0;entryY=0.5;entryDx=0;entryDy=0;strokeWidth=2;fontStyle=1;fontSize=15;" edge="1" parent="1" source="hfaoqGvCwaQ-2JbTVN7c-5" target="hfaoqGvCwaQ-2JbTVN7c-8">
          <mxGeometry relative="1" as="geometry" />
        </mxCell>
        <mxCell id="hfaoqGvCwaQ-2JbTVN7c-39" style="edgeStyle=none;rounded=0;orthogonalLoop=1;jettySize=auto;html=1;exitX=0;exitY=0.5;exitDx=0;exitDy=0;startArrow=open;startFill=0;endArrow=none;endFill=0;strokeWidth=2;fontStyle=1;fontSize=15;" edge="1" parent="1" source="hfaoqGvCwaQ-2JbTVN7c-5">
          <mxGeometry relative="1" as="geometry">
            <mxPoint x="130" y="500" as="targetPoint" />
          </mxGeometry>
        </mxCell>
        <mxCell id="hfaoqGvCwaQ-2JbTVN7c-40" style="edgeStyle=none;rounded=0;orthogonalLoop=1;jettySize=auto;html=1;exitX=0;exitY=0;exitDx=0;exitDy=0;startArrow=open;startFill=0;endArrow=none;endFill=0;strokeWidth=2;fontStyle=1;fontSize=15;" edge="1" parent="1" source="hfaoqGvCwaQ-2JbTVN7c-5">
          <mxGeometry relative="1" as="geometry">
            <mxPoint x="130" y="470" as="targetPoint" />
          </mxGeometry>
        </mxCell>
        <mxCell id="hfaoqGvCwaQ-2JbTVN7c-41" style="edgeStyle=none;rounded=0;orthogonalLoop=1;jettySize=auto;html=1;exitX=0;exitY=1;exitDx=0;exitDy=0;startArrow=open;startFill=0;endArrow=none;endFill=0;strokeWidth=2;fontStyle=1;fontSize=15;" edge="1" parent="1" source="hfaoqGvCwaQ-2JbTVN7c-5">
          <mxGeometry relative="1" as="geometry">
            <mxPoint x="130" y="530" as="targetPoint" />
          </mxGeometry>
        </mxCell>
        <mxCell id="hfaoqGvCwaQ-2JbTVN7c-5" value="$$\sigma$$" style="ellipse;whiteSpace=wrap;html=1;aspect=fixed;fillColor=none;strokeWidth=2;fontStyle=1;fontSize=15;" vertex="1" parent="1">
          <mxGeometry x="160" y="480" width="40" height="40" as="geometry" />
        </mxCell>
        <mxCell id="hfaoqGvCwaQ-2JbTVN7c-23" style="edgeStyle=orthogonalEdgeStyle;curved=1;rounded=0;orthogonalLoop=1;jettySize=auto;html=1;exitX=0.5;exitY=0;exitDx=0;exitDy=0;entryX=0.5;entryY=1;entryDx=0;entryDy=0;strokeWidth=2;fontStyle=1;fontSize=15;" edge="1" parent="1" source="hfaoqGvCwaQ-2JbTVN7c-7" target="hfaoqGvCwaQ-2JbTVN7c-21">
          <mxGeometry relative="1" as="geometry" />
        </mxCell>
        <mxCell id="hfaoqGvCwaQ-2JbTVN7c-7" value="tanh" style="ellipse;whiteSpace=wrap;html=1;aspect=fixed;fillColor=none;strokeWidth=2;fontStyle=1;fontSize=15;" vertex="1" parent="1">
          <mxGeometry x="360" y="200" width="40" height="40" as="geometry" />
        </mxCell>
        <mxCell id="hfaoqGvCwaQ-2JbTVN7c-10" style="edgeStyle=orthogonalEdgeStyle;rounded=0;orthogonalLoop=1;jettySize=auto;html=1;exitX=0.5;exitY=0;exitDx=0;exitDy=0;entryX=0.5;entryY=1;entryDx=0;entryDy=0;strokeWidth=2;fontStyle=1;fontSize=15;" edge="1" parent="1" source="hfaoqGvCwaQ-2JbTVN7c-8" target="hfaoqGvCwaQ-2JbTVN7c-2">
          <mxGeometry relative="1" as="geometry" />
        </mxCell>
        <mxCell id="hfaoqGvCwaQ-2JbTVN7c-8" value="" style="ellipse;whiteSpace=wrap;html=1;aspect=fixed;strokeWidth=4;fillColor=#000000;fontStyle=1;fontSize=15;" vertex="1" parent="1">
          <mxGeometry x="370" y="490" width="20" height="20" as="geometry" />
        </mxCell>
        <mxCell id="hfaoqGvCwaQ-2JbTVN7c-18" style="edgeStyle=orthogonalEdgeStyle;curved=1;rounded=0;orthogonalLoop=1;jettySize=auto;html=1;exitX=0.5;exitY=1;exitDx=0;exitDy=0;entryX=1;entryY=1;entryDx=0;entryDy=0;strokeWidth=2;fontStyle=1;fontSize=15;" edge="1" parent="1" source="hfaoqGvCwaQ-2JbTVN7c-12" target="hfaoqGvCwaQ-2JbTVN7c-2">
          <mxGeometry relative="1" as="geometry" />
        </mxCell>
        <mxCell id="hfaoqGvCwaQ-2JbTVN7c-12" value="" style="ellipse;whiteSpace=wrap;html=1;aspect=fixed;strokeWidth=4;fillColor=#000000;fontStyle=1;fontSize=15;" vertex="1" parent="1">
          <mxGeometry x="490" y="330" width="20" height="20" as="geometry" />
        </mxCell>
        <mxCell id="hfaoqGvCwaQ-2JbTVN7c-26" style="rounded=0;orthogonalLoop=1;jettySize=auto;html=1;exitX=0.5;exitY=0;exitDx=0;exitDy=0;entryX=0.5;entryY=0;entryDx=0;entryDy=0;strokeWidth=2;" edge="1" parent="1" source="hfaoqGvCwaQ-2JbTVN7c-21" target="hfaoqGvCwaQ-2JbTVN7c-1">
          <mxGeometry relative="1" as="geometry" />
        </mxCell>
        <mxCell id="hfaoqGvCwaQ-2JbTVN7c-21" value="" style="ellipse;whiteSpace=wrap;html=1;aspect=fixed;strokeWidth=4;fillColor=#000000;fontStyle=1;fontSize=15;" vertex="1" parent="1">
          <mxGeometry x="370" y="130" width="20" height="20" as="geometry" />
        </mxCell>
        <mxCell id="hfaoqGvCwaQ-2JbTVN7c-27" style="edgeStyle=none;rounded=0;orthogonalLoop=1;jettySize=auto;html=1;exitX=1;exitY=0.5;exitDx=0;exitDy=0;entryX=0;entryY=0.5;entryDx=0;entryDy=0;strokeWidth=2;fontStyle=1;fontSize=15;" edge="1" parent="1" source="hfaoqGvCwaQ-2JbTVN7c-25" target="hfaoqGvCwaQ-2JbTVN7c-21">
          <mxGeometry relative="1" as="geometry" />
        </mxCell>
        <mxCell id="hfaoqGvCwaQ-2JbTVN7c-42" style="edgeStyle=none;rounded=0;orthogonalLoop=1;jettySize=auto;html=1;exitX=0;exitY=0;exitDx=0;exitDy=0;startArrow=open;startFill=0;endArrow=none;endFill=0;strokeWidth=2;fontStyle=1;fontSize=15;" edge="1" parent="1" source="hfaoqGvCwaQ-2JbTVN7c-25">
          <mxGeometry relative="1" as="geometry">
            <mxPoint x="140" y="110" as="targetPoint" />
          </mxGeometry>
        </mxCell>
        <mxCell id="hfaoqGvCwaQ-2JbTVN7c-43" style="edgeStyle=none;rounded=0;orthogonalLoop=1;jettySize=auto;html=1;exitX=0;exitY=0.5;exitDx=0;exitDy=0;startArrow=open;startFill=0;endArrow=none;endFill=0;strokeWidth=2;fontStyle=1;fontSize=15;" edge="1" parent="1" source="hfaoqGvCwaQ-2JbTVN7c-25">
          <mxGeometry relative="1" as="geometry">
            <mxPoint x="130" y="140" as="targetPoint" />
          </mxGeometry>
        </mxCell>
        <mxCell id="hfaoqGvCwaQ-2JbTVN7c-44" style="edgeStyle=none;rounded=0;orthogonalLoop=1;jettySize=auto;html=1;exitX=0;exitY=1;exitDx=0;exitDy=0;startArrow=open;startFill=0;endArrow=none;endFill=0;strokeWidth=2;fontStyle=1;fontSize=15;" edge="1" parent="1" source="hfaoqGvCwaQ-2JbTVN7c-25">
          <mxGeometry relative="1" as="geometry">
            <mxPoint x="140" y="170" as="targetPoint" />
          </mxGeometry>
        </mxCell>
        <mxCell id="hfaoqGvCwaQ-2JbTVN7c-25" value="$$\sigma$$" style="ellipse;whiteSpace=wrap;html=1;aspect=fixed;fillColor=none;strokeWidth=2;fontStyle=1;fontSize=15;" vertex="1" parent="1">
          <mxGeometry x="160" y="120" width="40" height="40" as="geometry" />
        </mxCell>
        <mxCell id="hfaoqGvCwaQ-2JbTVN7c-28" value="Input gate" style="text;html=1;strokeColor=none;fillColor=none;align=center;verticalAlign=middle;whiteSpace=wrap;rounded=0;fontStyle=1;fontSize=15;" vertex="1" parent="1">
          <mxGeometry x="200" y="460" width="80" height="30" as="geometry" />
        </mxCell>
        <mxCell id="hfaoqGvCwaQ-2JbTVN7c-30" value="Forget gate" style="text;html=1;align=center;verticalAlign=middle;resizable=0;points=[];autosize=1;strokeColor=none;fillColor=none;fontStyle=1;fontSize=15;" vertex="1" parent="1">
          <mxGeometry x="490" y="370" width="100" height="20" as="geometry" />
        </mxCell>
        <mxCell id="hfaoqGvCwaQ-2JbTVN7c-31" value="Output gate" style="text;html=1;align=center;verticalAlign=middle;resizable=0;points=[];autosize=1;strokeColor=none;fillColor=none;fontStyle=1;fontSize=15;" vertex="1" parent="1">
          <mxGeometry x="190" y="150" width="100" height="20" as="geometry" />
        </mxCell>
      </root>
    </mxGraphModel>
  </diagram>
</mxfile>
